<svg version="1.1" xmlns="http://www.w3.org/2000/svg" xmlns:xlink="http://www.w3.org/1999/xlink">
	<symbol id="logo" viewBox="0 0 512 512">
		<g>
			<path d="m452 256c0-9.461-.686-18.947-2.043-28.313l60.896-42.267-66.301-114.84-67.063 31.61c-14.953-11.844-31.38-21.344-49.033-28.358l-6.154-73.832h-132.604l-6.153 73.832c-17.654 7.015-34.081 16.515-49.033 28.358l-67.064-31.61-66.301 114.84 60.896 42.267c-1.358 9.366-2.043 18.851-2.043 28.313s.686 18.947 2.043 28.313l-60.896 42.267 66.302 114.84 67.063-31.609c16.364 12.966 34.458 23.087 53.989 30.232v-65.952c-19.024-10.887-35.177-26.228-47.079-44.8-14.015-21.867-21.422-47.211-21.422-73.291 0-59.072 37.717-111.046 93.854-129.33l19.646-6.398v98.52l22.5 18 22.5-18v-98.52l19.646 6.398c56.136 18.284 93.854 70.258 93.854 129.33 0 26.08-7.407 51.424-21.421 73.291-11.901 18.572-28.055 33.913-47.079 44.8v65.952c19.53-7.145 37.624-17.267 53.989-30.233l67.063 31.609 66.302-114.84-60.896-42.267c1.356-9.365 2.042-18.851 2.042-28.312z" />
			<path d="m293.5 355.628 8.483-4.092c36.459-17.584 60.017-55.085 60.017-95.536 0-38.752-20.824-73.586-53.5-92.142v69.351l-52.5 42-52.5-42v-69.351c-32.677 18.556-53.5 53.39-53.5 92.142 0 40.451 23.558 77.951 60.017 95.536l8.483 4.092v156.372h75z" />
		</g>
	</symbol>
	<symbol id="phone" viewBox="0 0 384 384">
		<g>
			<g>
				<path d="M353.188,252.052c-23.51,0-46.594-3.677-68.469-10.906c-10.719-3.656-23.896-0.302-30.438,6.417l-43.177,32.594
					c-50.073-26.729-80.917-57.563-107.281-107.26l31.635-42.052c8.219-8.208,11.167-20.198,7.635-31.448
					c-7.26-21.99-10.948-45.063-10.948-68.583C132.146,13.823,118.323,0,101.333,0H30.813C13.823,0,0,13.823,0,30.813
					C0,225.563,158.438,384,353.188,384c16.99,0,30.813-13.823,30.813-30.813v-70.323C384,265.875,370.177,252.052,353.188,252.052z" />
			</g>
		</g>
	</symbol>
	<symbol id="clock" viewBox="0 0 512 512">
		<path d="m256 512c-141.164062 0-256-114.835938-256-256s114.835938-256 256-256 256 114.835938 256 256-114.835938 256-256 256zm0-480c-123.519531 0-224 100.480469-224 224s100.480469 224 224 224 224-100.480469 224-224-100.480469-224-224-224zm0 0" />
		<path d="m368 394.667969c-4.097656 0-8.191406-1.558594-11.308594-4.695313l-112-112c-3.007812-3.007812-4.691406-7.082031-4.691406-11.304687v-149.335938c0-8.832031 7.167969-16 16-16s16 7.167969 16 16v142.699219l107.308594 107.308594c6.25 6.25 6.25 16.382812 0 22.632812-3.117188 3.136719-7.210938 4.695313-11.308594 4.695313zm0 0" />
	</symbol>
	<symbol id="arrow" viewBox="0 0 492.004 492.004">
		<g>
			<g>
				<path d="M382.678,226.804L163.73,7.86C158.666,2.792,151.906,0,144.698,0s-13.968,2.792-19.032,7.86l-16.124,16.12
					c-10.492,10.504-10.492,27.576,0,38.064L293.398,245.9l-184.06,184.06c-5.064,5.068-7.86,11.824-7.86,19.028
					c0,7.212,2.796,13.968,7.86,19.04l16.124,16.116c5.068,5.068,11.824,7.86,19.032,7.86s13.968-2.792,19.032-7.86L382.678,265
					c5.076-5.084,7.864-11.872,7.848-19.088C390.542,238.668,387.754,231.884,382.678,226.804z" />
			</g>
		</g>
	</symbol>
	<symbol id="check" viewBox="0 0 512 512">
		<path d="m369.164062 174.769531c7.8125 7.8125 7.8125 20.476563 0 28.285157l-134.171874 134.175781c-7.8125 7.808593-20.472657 7.808593-28.285157 0l-63.871093-63.875c-7.8125-7.808594-7.8125-20.472657 0-28.28125 7.808593-7.8125 20.472656-7.8125 28.28125 0l49.730468 49.730469 120.03125-120.035157c7.8125-7.808593 20.476563-7.808593 28.285156 0zm142.835938 81.230469c0 141.503906-114.515625 256-256 256-141.503906 0-256-114.515625-256-256 0-141.503906 114.515625-256 256-256 141.503906 0 256 114.515625 256 256zm-40 0c0-119.394531-96.621094-216-216-216-119.394531 0-216 96.621094-216 216 0 119.394531 96.621094 216 216 216 119.394531 0 216-96.621094 216-216zm0 0" />
	</symbol>
	<symbol id="interface" viewBox="0 0 512 512">
		<path d="m63.929688 512c-17.066407 0-33.128907-6.65625-45.226563-18.773438-24.9375-24.9375-24.9375-65.515624 0-90.453124l203.265625-203.265626c-5.78125-15.914062-8.703125-32.746093-8.703125-50.175781 0-82.324219 66.984375-149.332031 149.332031-149.332031 21.269532 0 41.664063 4.351562 60.585938 12.949219 4.777344 2.175781 8.191406 6.550781 9.132812 11.710937.9375 5.164063-.726562 10.453125-4.4375 14.167969l-57.410156 57.386719 6.125 39.101562 39.101562 6.101563 57.386719-57.386719c3.710938-3.691406 9.046875-5.332031 14.164063-4.4375 5.164062.941406 9.539062 4.351562 11.714844 9.132812 8.617187 18.921876 12.96875 39.316407 12.96875 60.605469 0 82.328125-66.984376 149.335938-149.332032 149.335938-17.410156 0-34.242187-2.925781-50.175781-8.707031l-203.265625 203.265624c-12.09375 12.117188-28.160156 18.773438-45.226562 18.773438zm298.667968-480c-64.703125 0-117.332031 52.628906-117.332031 117.332031 0 16.683594 3.390625 32.621094 10.089844 47.359375 2.75 6.082032 1.472656 13.230469-3.242188 17.941406l-210.773437 210.773438c-12.460938 12.460938-12.460938 32.75 0 45.207031 12.117187 12.117188 33.085937 12.117188 45.203125 0l210.773437-210.773437c4.695313-4.714844 11.863282-6.058594 17.921875-3.242188 14.742188 6.675782 30.675781 10.070313 47.359375 10.070313 64.703125 0 117.332032-52.628907 117.332032-117.335938 0-8.339843-.851563-16.445312-2.515626-24.363281l-44.84375 44.84375c-3.605468 3.605469-8.789062 5.25-13.78125 4.503906l-58.667968-9.175781c-6.867188-1.085937-12.265625-6.464844-13.332032-13.332031l-9.171874-58.667969c-.789063-5.054687.875-10.175781 4.5-13.78125l44.84375-44.84375c-7.914063-1.664063-16.042969-2.515625-24.363282-2.515625zm0 0" />
	</symbol>
	<symbol id="was" viewBox="0 0 512 512">
		<g>
			<g>
				<path d="M496.327,0H15.673C7.018,0,0,7.018,0,15.673v480.653C0,504.982,7.018,512,15.673,512h480.653
					c8.656,0,15.673-7.018,15.673-15.673V15.673C512,7.018,504.982,0,496.327,0z M480.653,480.653H31.347v-346.31h449.306V480.653z
					M480.653,102.997H31.347v-71.65h449.306V102.997z" />
			</g>
		</g>
		<g>
			<g>
				<path d="M256,177.384c-71.331,0-129.363,58.369-129.363,130.115S184.669,437.614,256,437.614s129.363-58.369,129.363-130.115
					S327.331,177.384,256,177.384z M256,406.267c-54.046,0-98.016-44.307-98.016-98.768s43.969-98.768,98.016-98.768
					c54.046,0,98.016,44.307,98.016,98.768S310.046,406.267,256,406.267z" />
			</g>
		</g>
		<g>
			<g>
				<path d="M256,234.605c-39.986,0-72.518,32.7-72.518,72.894s32.532,72.894,72.518,72.894s72.517-32.7,72.517-72.894
					C328.517,267.305,295.986,234.605,256,234.605z M256,349.046c-22.701,0-41.171-18.638-41.171-41.547s18.47-41.547,41.171-41.547
					s41.17,18.638,41.17,41.547S278.701,349.046,256,349.046z" />
			</g>
		</g>
		<g>
			<g>
				<ellipse cx="420.843" cy="67.176" rx="22.738" ry="22.888" />
			</g>
		</g>
		<g>
			<g>
				<path d="M118.403,51.499H68.414c-8.656,0-15.673,7.018-15.673,15.673c0,8.656,7.018,15.673,15.673,15.673h49.989
					c8.656,0,15.673-7.018,15.673-15.673C134.076,58.516,127.059,51.499,118.403,51.499z" />
			</g>
		</g>
	</symbol>
	<symbol id="dish" viewBox="0 0 380 380">
		<g id="XMLID_1324_">
			<path id="XMLID_1327_" d="M50,0v360v20h50v-20h180v20h50v-20V0H50z M310,20v60H70V20H310z M70,340V100h240v240H70z" />
			<rect id="XMLID_1334_" x="180" y="40" width="40" height="20" />
			<rect id="XMLID_1347_" x="240" y="40" width="40" height="20" />
			<path id="XMLID_1370_" d="M270,300h-50v-20h-20v-21.006c22.795-4.646,40-24.847,40-48.994v-30H140v30
				c0,24.146,17.205,44.348,40,48.994V280h-20v20h-50V140H90v180h200V140h-20V300z M160,210v-10h60v10c0,16.542-13.458,30-30,30
				S160,226.542,160,210z" />
		</g>
	</symbol>
	<symbol id="ref" viewBox="0 0 490.561 490.561">
		<g>
			<g>
				<g>
					<path d="M356.214,0H134.24c-18.133,0-32.96,14.72-32.96,32.853v424.853c0,18.24,14.827,32.96,32.96,32.853h221.973
						c18.24,0,32.96-14.72,33.067-32.853V32.853C389.28,14.72,374.454,0,356.214,0z M367.947,457.813c0,6.4-5.227,11.52-11.733,11.52
						H134.24c-6.4,0-11.627-5.12-11.627-11.52V202.667h245.333V457.813z M367.947,181.333H122.614V32.853
						c0-6.4,5.227-11.52,11.627-11.52h221.973c6.4,0,11.627,5.12,11.733,11.52V181.333z" />
					<path d="M335.947,85.333c-5.867,0-10.667,4.8-10.667,10.667v42.667c0,5.867,4.8,10.667,10.667,10.667
						c5.867,0,10.667-4.8,10.667-10.667V96C346.614,90.133,341.814,85.333,335.947,85.333z" />
					<path d="M335.947,298.667c5.867,0,10.667-4.8,10.667-10.667v-53.333c0-5.867-4.8-10.667-10.667-10.667
						c-5.867,0-10.667,4.8-10.667,10.667V288C325.28,293.867,330.08,298.667,335.947,298.667z" />
				</g>
			</g>
		</g>
	</symbol>
</svg>
